<?xml version="1.0" standalone="yes"?>
<svg xmlns="http://www.w3.org/2000/svg" viewBox="0 0 350 200" style="zoom: 2;">
  <style>
    svg {
      --green: limegreen;
      --pulp: palegoldenrod;
      --skin: yellow;
      --key-color: darkgoldenrod;
    }
  </style>
    <g id="slug" transform="translate(0, 20)">
    <!-- EZKV -->
    <path id="ezkv" fill="var(--green)" transform="" stroke="black" stroke-width="0.25" d="M35.2,16.8 L17.3,16.8 L17.3,26.4 L33.8,26.4 C35.0,26.4 35.9,26.7 36.5,27.3 C37.1,27.8 37.4,28.5 37.4,29.4 C37.4,30.3 37.1,31.1 36.6,31.6 C36.0,32.2 35.1,32.5 33.8,32.5 L17.3,32.5 L17.3,43.7 L35.9,43.7 C37.1,43.7 38.1,44.0 38.7,44.5 C39.3,45.1 39.6,45.9 39.6,46.9 C39.6,47.8 39.3,48.5 38.7,49.1 C38.1,49.7 37.1,50.0 35.9,50.0 L14.2,50.0 C12.4,50.0 11.2,49.6 10.4,48.8 C9.7,48.1 9.3,46.8 9.3,45.1 L9.3,15.5 C9.3,14.4 9.5,13.4 9.8,12.7 C10.1,12.0 10.7,11.5 11.4,11.1 C12.1,10.8 13.1,10.6 14.2,10.6 L35.2,10.6 C36.5,10.6 37.5,10.9 38.1,11.5 C38.7,12.0 39.0,12.8 39.0,13.7 C39.0,14.6 38.7,15.4 38.1,15.9 C37.5,16.5 36.5,16.8 35.2,16.8 M44.9,40.8 L65.2,16.6 L47.8,16.6 C46.6,16.6 45.6,16.4 45.0,15.8 C44.4,15.3 44.1,14.6 44.1,13.7 C44.1,12.8 44.4,12.0 45.0,11.5 C45.6,10.9 46.6,10.6 47.8,10.6 L70.2,10.6 C73.1,10.6 74.5,12.0 74.5,14.7 C74.5,16.0 74.3,17.0 73.8,17.8 C73.3,18.5 72.3,19.8 70.9,21.5 L52.0,44.0 L72.8,44.0 C74.0,44.0 75.0,44.3 75.6,44.8 C76.2,45.3 76.5,46.0 76.5,46.9 C76.5,47.9 76.2,48.6 75.6,49.2 C75.0,49.7 74.0,50.0 72.8,50.0 L47.2,50.0 C45.5,50.0 44.2,49.6 43.3,48.8 C42.4,48.1 42.0,47.0 42.0,45.7 C42.0,45.3 42.1,44.8 42.2,44.5 C42.4,44.1 42.6,43.7 42.8,43.4 C43.0,43.1 43.4,42.7 43.8,42.1 C44.2,41.6 44.6,41.2 44.9,40.8 M89.5,14.8 L89.5,28.6 L105.2,12.3 C105.9,11.5 106.6,10.9 107.1,10.5 C107.6,10.1 108.3,10.0 109.2,10.0 C110.4,10.0 111.3,10.3 112.0,11.0 C112.7,11.6 113.1,12.5 113.1,13.4 C113.1,14.6 112.5,15.7 111.3,16.9 L101.6,26.1 L112.7,42.1 C113.5,43.2 114.1,44.2 114.5,45.0 C114.9,45.8 115.1,46.6 115.1,47.4 C115.1,48.3 114.8,49.1 114.1,49.7 C113.4,50.3 112.4,50.7 111.3,50.7 C110.2,50.7 109.3,50.4 108.6,50.0 C107.9,49.5 107.3,48.9 106.8,48.1 C106.3,47.3 105.9,46.6 105.5,45.9 L96.1,31.4 L89.5,37.7 L89.5,45.8 C89.5,47.5 89.2,48.7 88.4,49.5 C87.7,50.3 86.7,50.7 85.5,50.7 C84.8,50.7 84.2,50.5 83.6,50.1 C82.9,49.8 82.4,49.3 82.1,48.7 C81.9,48.2 81.7,47.6 81.6,46.9 C81.6,46.3 81.6,45.3 81.6,44.1 L81.6,14.8 C81.6,13.2 81.9,12.0 82.6,11.2 C83.3,10.4 84.3,10.0 85.5,10.0 C86.7,10.0 87.7,10.4 88.4,11.2 C89.2,12.0 89.5,13.2 89.5,14.8 M128.1,15.2 L137.0,41.6 L145.9,15.0 C146.4,13.6 146.7,12.6 147.0,12.1 C147.2,11.5 147.6,11.1 148.1,10.6 C148.6,10.2 149.4,10.0 150.3,10.0 C151.0,10.0 151.6,10.1 152.2,10.5 C152.8,10.8 153.2,11.3 153.6,11.8 C153.9,12.4 154.1,13.0 154.1,13.5 C154.1,13.9 154.0,14.3 153.9,14.8 C153.8,15.3 153.7,15.7 153.5,16.1 C153.3,16.6 153.2,17.0 153.0,17.5 L143.5,43.2 C143.2,44.2 142.8,45.2 142.5,46.0 C142.1,46.9 141.7,47.7 141.3,48.4 C140.8,49.0 140.2,49.6 139.5,50.0 C138.8,50.5 137.9,50.7 136.8,50.7 C135.7,50.7 134.8,50.5 134.1,50.0 C133.3,49.6 132.7,49.1 132.3,48.4 C131.8,47.7 131.4,46.9 131.1,46.0 C130.7,45.1 130.4,44.2 130.0,43.2 L120.7,17.7 C120.5,17.3 120.3,16.8 120.2,16.4 C120.0,15.9 119.9,15.4 119.7,14.9 C119.6,14.4 119.6,13.9 119.6,13.6 C119.6,12.7 119.9,11.8 120.7,11.1 C121.4,10.3 122.3,10.0 123.4,10.0 C124.8,10.0 125.8,10.4 126.3,11.2 C126.9,12.0 127.5,13.4 128.1,15.2 " />
    <!-- Lemon Squeezy! -->
    <path id="lemon_squeezy" fill="var(--skin)" stroke="var(--key-color)" stroke-width="0.25"  d="M18.5,66.8 L18.5,75.1 L23.2,75.1 C23.6,75.1 23.9,75.2 24.1,75.4 C24.3,75.5 24.4,75.8 24.4,76.1 C24.4,76.3 24.3,76.6 24.1,76.7 C23.9,76.9 23.6,77.0 23.2,77.0 L17.6,77.0 C17.1,77.0 16.8,76.9 16.5,76.7 C16.3,76.4 16.2,76.1 16.2,75.6 L16.2,66.8 C16.2,66.3 16.3,65.9 16.5,65.7 C16.7,65.5 17.0,65.4 17.4,65.4 C17.7,65.4 18.0,65.5 18.2,65.7 C18.4,65.9 18.5,66.3 18.5,66.8 M31.7,73.4 L27.5,73.4 C27.6,73.9 27.6,74.3 27.8,74.7 C28.0,75.0 28.3,75.3 28.6,75.5 C28.9,75.7 29.3,75.8 29.6,75.8 C29.9,75.8 30.1,75.8 30.3,75.7 C30.6,75.6 30.8,75.5 31.0,75.4 C31.2,75.3 31.3,75.1 31.5,75.0 C31.7,74.9 31.9,74.7 32.1,74.4 C32.3,74.3 32.4,74.3 32.6,74.3 C32.8,74.3 33.0,74.3 33.1,74.4 C33.3,74.6 33.4,74.7 33.4,75.0 C33.4,75.1 33.3,75.4 33.1,75.6 C33.0,75.9 32.7,76.1 32.4,76.4 C32.1,76.6 31.8,76.8 31.3,77.0 C30.8,77.1 30.3,77.2 29.7,77.2 C28.3,77.2 27.3,76.8 26.5,76.0 C25.7,75.2 25.4,74.2 25.4,72.8 C25.4,72.2 25.5,71.6 25.6,71.1 C25.8,70.6 26.1,70.1 26.5,69.7 C26.8,69.3 27.3,69.0 27.8,68.8 C28.3,68.6 28.9,68.5 29.5,68.5 C30.4,68.5 31.1,68.7 31.7,69.0 C32.3,69.4 32.7,69.8 33.0,70.4 C33.3,71.0 33.5,71.5 33.5,72.1 C33.5,72.6 33.3,73.0 33.0,73.1 C32.7,73.3 32.3,73.4 31.7,73.4 M27.5,72.2 L31.4,72.2 C31.4,71.4 31.2,70.9 30.8,70.5 C30.5,70.2 30.0,70.0 29.5,70.0 C28.9,70.0 28.5,70.2 28.2,70.5 C27.8,70.9 27.6,71.5 27.5,72.2 M42.4,73.0 L42.4,75.9 C42.4,76.3 42.3,76.6 42.1,76.9 C41.9,77.1 41.6,77.2 41.3,77.2 C40.9,77.2 40.7,77.1 40.5,76.9 C40.3,76.6 40.2,76.3 40.2,75.9 L40.2,72.5 C40.2,71.9 40.2,71.5 40.1,71.2 C40.1,70.9 40.0,70.7 39.8,70.5 C39.7,70.3 39.4,70.2 39.1,70.2 C38.4,70.2 37.9,70.4 37.7,70.9 C37.5,71.4 37.3,72.1 37.3,73.0 L37.3,75.9 C37.3,76.3 37.2,76.6 37.0,76.9 C36.8,77.1 36.6,77.2 36.2,77.2 C35.9,77.2 35.7,77.1 35.5,76.9 C35.3,76.6 35.1,76.3 35.1,75.9 L35.1,69.8 C35.1,69.3 35.2,69.0 35.4,68.8 C35.6,68.6 35.9,68.5 36.2,68.5 C36.4,68.5 36.7,68.6 36.9,68.8 C37.1,69.0 37.2,69.3 37.2,69.6 L37.2,69.8 C37.5,69.4 37.9,69.1 38.4,68.9 C38.8,68.6 39.3,68.5 39.8,68.5 C40.3,68.5 40.8,68.6 41.2,68.9 C41.5,69.1 41.9,69.4 42.1,69.8 C42.5,69.4 42.9,69.1 43.3,68.9 C43.7,68.6 44.1,68.5 44.6,68.5 C45.2,68.5 45.7,68.7 46.1,68.9 C46.6,69.1 46.9,69.4 47.1,69.9 C47.3,70.3 47.4,70.9 47.4,71.7 L47.4,75.9 C47.4,76.3 47.3,76.6 47.1,76.9 C46.9,77.1 46.6,77.2 46.2,77.2 C45.9,77.2 45.7,77.1 45.5,76.9 C45.3,76.6 45.1,76.3 45.1,75.9 L45.1,72.3 C45.1,71.8 45.1,71.4 45.1,71.2 C45.1,70.9 44.9,70.7 44.8,70.5 C44.6,70.3 44.3,70.2 44.0,70.2 C43.7,70.2 43.4,70.3 43.2,70.4 C42.9,70.6 42.7,70.8 42.6,71.1 C42.4,71.5 42.4,72.1 42.4,73.0 M57.4,72.9 C57.4,73.5 57.3,74.1 57.1,74.6 C56.9,75.2 56.6,75.6 56.3,76.0 C55.9,76.4 55.4,76.7 54.9,76.9 C54.4,77.1 53.8,77.2 53.2,77.2 C52.5,77.2 51.9,77.1 51.4,76.9 C50.9,76.7 50.5,76.4 50.1,76.0 C49.7,75.6 49.4,75.1 49.2,74.6 C49.0,74.1 48.9,73.5 48.9,72.9 C48.9,72.2 49.0,71.6 49.2,71.1 C49.4,70.5 49.7,70.1 50.1,69.7 C50.4,69.3 50.9,69.0 51.4,68.8 C51.9,68.6 52.5,68.5 53.2,68.5 C53.8,68.5 54.4,68.6 54.9,68.8 C55.4,69.0 55.9,69.3 56.3,69.7 C56.6,70.1 56.9,70.6 57.1,71.1 C57.3,71.6 57.4,72.2 57.4,72.9 M55.3,72.9 C55.3,72.0 55.1,71.3 54.7,70.8 C54.3,70.3 53.8,70.1 53.2,70.1 C52.7,70.1 52.4,70.2 52.1,70.4 C51.7,70.6 51.5,71.0 51.3,71.4 C51.1,71.8 51.1,72.3 51.1,72.9 C51.1,73.4 51.1,73.9 51.3,74.3 C51.5,74.7 51.7,75.1 52.0,75.3 C52.4,75.5 52.7,75.6 53.2,75.6 C53.8,75.6 54.3,75.4 54.7,74.9 C55.1,74.4 55.3,73.7 55.3,72.9 M61.0,69.7 L61.0,70.0 C61.4,69.5 61.8,69.1 62.3,68.9 C62.7,68.6 63.2,68.5 63.8,68.5 C64.4,68.5 64.9,68.6 65.3,68.9 C65.7,69.1 66.1,69.5 66.3,69.9 C66.4,70.2 66.5,70.5 66.6,70.8 C66.6,71.1 66.6,71.5 66.6,71.9 L66.6,75.9 C66.6,76.3 66.5,76.6 66.3,76.9 C66.1,77.1 65.9,77.2 65.6,77.2 C65.3,77.2 65.0,77.1 64.8,76.9 C64.6,76.6 64.5,76.3 64.5,75.9 L64.5,72.3 C64.5,71.6 64.4,71.1 64.2,70.7 C64.0,70.4 63.6,70.2 63.0,70.2 C62.7,70.2 62.3,70.3 62.0,70.5 C61.7,70.7 61.5,71.0 61.3,71.4 C61.2,71.8 61.2,72.4 61.2,73.2 L61.2,75.9 C61.2,76.3 61.1,76.7 60.9,76.9 C60.7,77.1 60.4,77.2 60.1,77.2 C59.8,77.2 59.5,77.1 59.3,76.9 C59.1,76.6 59.0,76.3 59.0,75.9 L59.0,69.7 C59.0,69.3 59.1,69.0 59.3,68.8 C59.5,68.6 59.7,68.5 60.0,68.5 C60.2,68.5 60.4,68.6 60.5,68.7 C60.7,68.7 60.8,68.9 60.9,69.1 C61.0,69.2 61.0,69.4 61.0,69.7 M81.6,73.6 C81.6,74.3 81.4,74.9 81.1,75.4 C80.7,76.0 80.2,76.4 79.5,76.7 C78.8,77.0 78.0,77.2 77.1,77.2 C75.9,77.2 75.0,77.0 74.3,76.6 C73.7,76.2 73.3,75.8 73.0,75.3 C72.7,74.8 72.5,74.3 72.5,73.8 C72.5,73.5 72.6,73.3 72.8,73.1 C73.0,72.9 73.2,72.8 73.5,72.8 C73.8,72.8 74.0,72.9 74.2,73.0 C74.3,73.2 74.5,73.4 74.6,73.7 C74.7,74.1 74.9,74.4 75.1,74.6 C75.2,74.9 75.5,75.1 75.8,75.3 C76.1,75.4 76.5,75.5 77.0,75.5 C77.7,75.5 78.2,75.3 78.7,75.0 C79.1,74.7 79.3,74.3 79.3,73.8 C79.3,73.4 79.2,73.1 79.0,72.9 C78.7,72.6 78.4,72.5 78.1,72.3 C77.7,72.2 77.2,72.1 76.6,71.9 C75.8,71.8 75.1,71.5 74.5,71.3 C74.0,71.0 73.5,70.7 73.2,70.2 C72.9,69.8 72.7,69.2 72.7,68.6 C72.7,67.9 72.9,67.4 73.2,66.9 C73.6,66.4 74.1,66.0 74.7,65.7 C75.4,65.5 76.2,65.4 77.0,65.4 C77.7,65.4 78.3,65.4 78.9,65.6 C79.4,65.8 79.8,66.0 80.1,66.3 C80.5,66.6 80.7,66.9 80.9,67.2 C81.0,67.5 81.1,67.8 81.1,68.1 C81.1,68.4 81.0,68.7 80.8,68.9 C80.6,69.1 80.4,69.2 80.1,69.2 C79.8,69.2 79.6,69.2 79.5,69.0 C79.3,68.9 79.2,68.7 79.0,68.4 C78.8,67.9 78.6,67.6 78.3,67.4 C78.0,67.1 77.5,67.0 76.9,67.0 C76.3,67.0 75.8,67.1 75.4,67.4 C75.1,67.7 74.9,68.0 74.9,68.3 C74.9,68.6 74.9,68.8 75.1,68.9 C75.2,69.1 75.4,69.2 75.6,69.4 C75.8,69.5 76.0,69.6 76.2,69.6 C76.5,69.7 76.8,69.8 77.4,69.9 C78.0,70.1 78.6,70.3 79.1,70.4 C79.6,70.6 80.1,70.8 80.4,71.1 C80.8,71.4 81.1,71.7 81.3,72.1 C81.5,72.5 81.6,73.0 81.6,73.6 M89.3,78.9 L89.3,75.9 C88.9,76.3 88.4,76.7 88.0,76.9 C87.5,77.1 87.0,77.2 86.5,77.2 C85.8,77.2 85.2,77.0 84.7,76.7 C84.2,76.3 83.7,75.8 83.4,75.2 C83.1,74.5 83.0,73.7 83.0,72.9 C83.0,72.0 83.1,71.2 83.4,70.5 C83.7,69.9 84.2,69.4 84.7,69.0 C85.3,68.7 85.9,68.5 86.6,68.5 C87.1,68.5 87.7,68.7 88.1,68.9 C88.6,69.1 89.0,69.5 89.3,70.0 L89.3,69.7 C89.3,69.3 89.4,69.0 89.6,68.8 C89.7,68.6 90.0,68.5 90.3,68.5 C90.6,68.5 90.8,68.6 91.0,68.8 C91.2,69.0 91.3,69.3 91.3,69.7 L91.3,78.9 C91.3,79.9 91.0,80.4 90.3,80.4 C89.9,80.4 89.6,80.2 89.5,80.0 C89.3,79.7 89.3,79.4 89.3,78.9 M85.1,72.8 C85.1,73.4 85.2,73.9 85.4,74.3 C85.6,74.7 85.8,75.0 86.1,75.2 C86.4,75.4 86.7,75.5 87.1,75.5 C87.5,75.5 87.8,75.4 88.1,75.2 C88.4,75.0 88.7,74.7 88.9,74.3 C89.1,73.9 89.2,73.4 89.2,72.8 C89.2,72.4 89.1,72.0 89.0,71.6 C88.9,71.3 88.7,71.0 88.6,70.8 C88.4,70.6 88.1,70.4 87.9,70.3 C87.6,70.2 87.4,70.1 87.1,70.1 C86.5,70.1 86.0,70.4 85.7,70.8 C85.3,71.3 85.1,72.0 85.1,72.8 M99.0,76.0 L99.0,75.7 C98.7,76.0 98.4,76.3 98.2,76.5 C97.9,76.8 97.6,76.9 97.2,77.0 C96.9,77.1 96.5,77.2 96.1,77.2 C95.6,77.2 95.1,77.1 94.7,76.9 C94.3,76.6 94.0,76.4 93.8,76.0 C93.5,75.5 93.4,74.9 93.4,74.0 L93.4,69.8 C93.4,69.4 93.5,69.1 93.7,68.8 C93.8,68.6 94.1,68.5 94.4,68.5 C94.7,68.5 95.0,68.6 95.2,68.8 C95.4,69.1 95.5,69.4 95.5,69.8 L95.5,73.2 C95.5,73.7 95.5,74.1 95.6,74.5 C95.7,74.8 95.9,75.1 96.1,75.2 C96.3,75.4 96.6,75.5 97.0,75.5 C97.3,75.5 97.7,75.4 98.0,75.2 C98.3,75.0 98.5,74.7 98.7,74.4 C98.8,74.1 98.8,73.4 98.8,72.4 L98.8,69.8 C98.8,69.4 98.9,69.1 99.1,68.8 C99.3,68.6 99.6,68.5 99.9,68.5 C100.2,68.5 100.5,68.6 100.7,68.8 C100.9,69.1 101.0,69.4 101.0,69.8 L101.0,76.0 C101.0,76.4 100.9,76.7 100.7,76.9 C100.5,77.1 100.3,77.2 100.0,77.2 C99.7,77.2 99.4,77.1 99.3,76.9 C99.1,76.7 99.0,76.4 99.0,76.0 M109.0,73.4 L104.9,73.4 C104.9,73.9 105.0,74.3 105.2,74.7 C105.4,75.0 105.6,75.3 105.9,75.5 C106.2,75.7 106.6,75.8 107.0,75.8 C107.2,75.8 107.5,75.8 107.7,75.7 C107.9,75.6 108.1,75.5 108.3,75.4 C108.5,75.3 108.7,75.1 108.8,75.0 C109.0,74.9 109.2,74.7 109.5,74.4 C109.6,74.3 109.7,74.3 109.9,74.3 C110.2,74.3 110.3,74.3 110.5,74.4 C110.6,74.6 110.7,74.7 110.7,75.0 C110.7,75.1 110.6,75.4 110.5,75.6 C110.3,75.9 110.1,76.1 109.8,76.4 C109.5,76.6 109.1,76.8 108.6,77.0 C108.2,77.1 107.6,77.2 107.0,77.2 C105.7,77.2 104.6,76.8 103.8,76.0 C103.1,75.2 102.7,74.2 102.7,72.8 C102.7,72.2 102.8,71.6 103.0,71.1 C103.2,70.6 103.4,70.1 103.8,69.7 C104.2,69.3 104.6,69.0 105.1,68.8 C105.7,68.6 106.2,68.5 106.9,68.5 C107.7,68.5 108.4,68.7 109.0,69.0 C109.6,69.4 110.1,69.8 110.4,70.4 C110.7,71.0 110.8,71.5 110.8,72.1 C110.8,72.6 110.7,73.0 110.3,73.1 C110.0,73.3 109.6,73.4 109.0,73.4 M104.9,72.2 L108.7,72.2 C108.7,71.4 108.5,70.9 108.2,70.5 C107.8,70.2 107.4,70.0 106.8,70.0 C106.3,70.0 105.8,70.2 105.5,70.5 C105.2,70.9 104.9,71.5 104.9,72.2 M118.6,73.4 L114.4,73.4 C114.4,73.9 114.5,74.3 114.7,74.7 C114.9,75.0 115.1,75.3 115.4,75.5 C115.7,75.7 116.1,75.8 116.5,75.8 C116.7,75.8 117.0,75.8 117.2,75.7 C117.4,75.6 117.6,75.5 117.8,75.4 C118.0,75.3 118.2,75.1 118.3,75.0 C118.5,74.9 118.7,74.7 119.0,74.4 C119.1,74.3 119.2,74.3 119.5,74.3 C119.7,74.3 119.8,74.3 120.0,74.4 C120.1,74.6 120.2,74.7 120.2,75.0 C120.2,75.1 120.1,75.4 120.0,75.6 C119.8,75.9 119.6,76.1 119.3,76.4 C119.0,76.6 118.6,76.8 118.1,77.0 C117.7,77.1 117.1,77.2 116.5,77.2 C115.2,77.2 114.1,76.8 113.3,76.0 C112.6,75.2 112.2,74.2 112.2,72.8 C112.2,72.2 112.3,71.6 112.5,71.1 C112.7,70.6 112.9,70.1 113.3,69.7 C113.7,69.3 114.1,69.0 114.6,68.8 C115.2,68.6 115.7,68.5 116.4,68.5 C117.2,68.5 117.9,68.7 118.5,69.0 C119.1,69.4 119.6,69.8 119.9,70.4 C120.2,71.0 120.3,71.5 120.3,72.1 C120.3,72.6 120.2,73.0 119.9,73.1 C119.5,73.3 119.1,73.4 118.6,73.4 M114.4,72.2 L118.2,72.2 C118.2,71.4 118.0,70.9 117.7,70.5 C117.3,70.2 116.9,70.0 116.3,70.0 C115.8,70.0 115.3,70.2 115.0,70.5 C114.7,70.9 114.5,71.5 114.4,72.2 M127.9,71.0 L124.0,75.3 L128.2,75.3 C128.5,75.3 128.8,75.4 128.9,75.6 C129.1,75.7 129.2,75.9 129.2,76.2 C129.2,76.4 129.1,76.6 128.9,76.8 C128.8,76.9 128.5,77.0 128.2,77.0 L122.4,77.0 C122.0,77.0 121.7,76.9 121.5,76.7 C121.3,76.6 121.2,76.3 121.2,76.0 C121.2,75.8 121.3,75.6 121.4,75.5 C121.5,75.3 121.8,74.9 122.3,74.4 C122.7,73.9 123.2,73.4 123.6,73.0 C123.9,72.6 124.3,72.2 124.6,71.8 C124.9,71.5 125.2,71.2 125.4,70.9 C125.6,70.7 125.8,70.4 126.0,70.2 L122.8,70.2 C122.3,70.2 122.0,70.2 121.8,70.1 C121.6,70.1 121.5,69.8 121.5,69.5 C121.5,69.3 121.5,69.1 121.7,68.9 C121.9,68.8 122.1,68.7 122.4,68.7 L127.3,68.7 C127.8,68.7 128.1,68.8 128.4,68.9 C128.6,69.0 128.7,69.3 128.7,69.6 C128.7,69.7 128.7,69.9 128.7,70.0 C128.6,70.1 128.6,70.2 128.5,70.3 C128.5,70.4 128.4,70.5 128.3,70.6 C128.2,70.7 128.1,70.8 127.9,71.0 M132.4,77.5 L132.6,77.0 L130.0,70.4 C129.8,70.0 129.7,69.7 129.7,69.5 C129.7,69.4 129.8,69.2 129.9,69.0 C130.0,68.9 130.1,68.8 130.3,68.7 C130.4,68.6 130.6,68.5 130.8,68.5 C131.1,68.5 131.3,68.6 131.5,68.8 C131.6,69.0 131.8,69.3 131.9,69.7 L133.7,74.9 L135.4,70.0 C135.5,69.6 135.7,69.3 135.8,69.1 C135.9,68.9 136.0,68.7 136.1,68.6 C136.2,68.6 136.4,68.5 136.6,68.5 C136.8,68.5 137.0,68.6 137.1,68.7 C137.3,68.7 137.4,68.9 137.4,69.0 C137.5,69.1 137.6,69.3 137.6,69.5 C137.5,69.6 137.5,69.7 137.5,69.9 C137.4,70.1 137.4,70.2 137.3,70.4 L134.5,77.7 C134.3,78.4 134.0,78.9 133.8,79.2 C133.6,79.6 133.3,79.9 132.9,80.1 C132.5,80.3 132.0,80.4 131.4,80.4 C130.7,80.4 130.3,80.3 130.0,80.2 C129.7,80.0 129.5,79.8 129.5,79.4 C129.5,79.2 129.6,79.0 129.7,78.8 C129.9,78.7 130.1,78.6 130.4,78.6 C130.5,78.6 130.6,78.7 130.7,78.7 C130.9,78.7 131.0,78.7 131.1,78.7 C131.3,78.7 131.5,78.7 131.6,78.6 C131.8,78.6 131.9,78.4 132.0,78.3 C132.1,78.1 132.3,77.8 132.4,77.5 M139.8,72.0 L139.6,68.3 C139.5,67.6 139.5,67.0 139.5,66.7 C139.5,66.3 139.6,66.0 139.8,65.7 C140.1,65.5 140.4,65.4 140.7,65.4 C141.2,65.4 141.5,65.5 141.6,65.8 C141.8,66.1 141.9,66.6 141.9,67.2 C141.9,67.5 141.8,67.8 141.8,68.2 L141.5,72.1 C141.4,72.5 141.4,72.9 141.2,73.1 C141.1,73.4 140.9,73.5 140.6,73.5 C140.4,73.5 140.2,73.4 140.1,73.1 C139.9,72.9 139.9,72.5 139.8,72.0 M140.7,77.2 C140.4,77.2 140.1,77.1 139.9,76.9 C139.6,76.7 139.5,76.4 139.5,76.0 C139.5,75.7 139.6,75.4 139.8,75.2 C140.1,75.0 140.3,74.8 140.7,74.8 C141.0,74.8 141.3,75.0 141.5,75.2 C141.7,75.4 141.9,75.7 141.9,76.0 C141.9,76.4 141.7,76.7 141.5,76.9 C141.3,77.1 141.0,77.2 140.7,77.2 " ></path>
    <!-- Micro Config Library-->
    <path id="micro_config_library" fill="var(--key-color)" stroke="var(--key-color)" stroke-width="0.25" d="M21.8,98.7 L20.5,93.2 L20.5,99.2 C20.5,99.5 20.4,99.7 20.2,99.9 C20.1,100.1 19.9,100.1 19.7,100.1 C19.4,100.1 19.2,100.1 19.1,99.9 C18.9,99.7 18.9,99.5 18.9,99.2 L18.9,92.4 C18.9,92.0 19.0,91.7 19.2,91.6 C19.3,91.5 19.6,91.4 19.9,91.4 L20.5,91.4 C20.8,91.4 21.0,91.4 21.2,91.5 C21.3,91.6 21.4,91.7 21.5,91.8 C21.6,92.0 21.7,92.2 21.8,92.6 L23.0,97.3 L24.3,92.6 C24.3,92.2 24.4,92.0 24.5,91.8 C24.6,91.7 24.7,91.6 24.8,91.5 C25.0,91.4 25.2,91.4 25.5,91.4 L26.1,91.4 C26.4,91.4 26.7,91.5 26.9,91.6 C27.0,91.7 27.1,92.0 27.1,92.4 L27.1,99.2 C27.1,99.5 27.1,99.7 26.9,99.9 C26.8,100.1 26.6,100.1 26.3,100.1 C26.1,100.1 25.9,100.1 25.8,99.9 C25.6,99.7 25.5,99.5 25.5,99.2 L25.5,93.2 L24.2,98.7 C24.1,99.1 24.0,99.3 24.0,99.5 C23.9,99.7 23.8,99.8 23.6,99.9 C23.5,100.1 23.3,100.1 23.0,100.1 C22.8,100.1 22.6,100.1 22.5,100.0 C22.3,99.9 22.2,99.8 22.2,99.7 C22.1,99.5 22.0,99.4 22.0,99.2 C21.9,99.1 21.9,98.9 21.8,98.7 M30.4,94.6 L30.4,99.2 C30.4,99.5 30.3,99.7 30.2,99.9 C30.0,100.1 29.8,100.1 29.6,100.1 C29.4,100.1 29.2,100.1 29.0,99.9 C28.9,99.7 28.8,99.5 28.8,99.2 L28.8,94.6 C28.8,94.3 28.9,94.0 29.0,93.9 C29.2,93.7 29.4,93.6 29.6,93.6 C29.8,93.6 30.0,93.7 30.2,93.9 C30.3,94.0 30.4,94.3 30.4,94.6 M29.6,92.9 C29.4,92.9 29.2,92.8 29.1,92.7 C28.9,92.6 28.8,92.4 28.8,92.1 C28.8,91.9 28.9,91.7 29.1,91.6 C29.2,91.4 29.4,91.3 29.6,91.3 C29.8,91.3 30.0,91.4 30.2,91.5 C30.3,91.7 30.4,91.9 30.4,92.1 C30.4,92.4 30.3,92.6 30.2,92.7 C30.0,92.8 29.8,92.9 29.6,92.9 M37.8,98.2 C37.8,98.4 37.8,98.6 37.6,98.8 C37.5,99.0 37.3,99.2 37.1,99.5 C36.8,99.7 36.5,99.8 36.2,99.9 C35.8,100.1 35.4,100.1 34.9,100.1 C33.9,100.1 33.2,99.8 32.6,99.3 C32.0,98.7 31.8,97.9 31.8,97.0 C31.8,96.3 31.9,95.7 32.1,95.2 C32.4,94.7 32.8,94.3 33.2,94.0 C33.7,93.8 34.3,93.6 35.0,93.6 C35.4,93.6 35.8,93.7 36.1,93.8 C36.5,93.9 36.7,94.1 37.0,94.3 C37.2,94.5 37.4,94.7 37.5,94.9 C37.7,95.1 37.7,95.3 37.7,95.5 C37.7,95.7 37.7,95.9 37.5,96.0 C37.4,96.1 37.2,96.2 37.0,96.2 C36.9,96.2 36.8,96.2 36.7,96.1 C36.6,96.0 36.5,95.9 36.4,95.8 C36.2,95.5 36.0,95.2 35.8,95.1 C35.5,94.9 35.3,94.9 34.9,94.9 C34.5,94.9 34.1,95.0 33.8,95.4 C33.5,95.8 33.4,96.3 33.4,96.9 C33.4,97.2 33.4,97.5 33.5,97.8 C33.6,98.0 33.7,98.2 33.8,98.4 C33.9,98.6 34.1,98.7 34.3,98.8 C34.5,98.9 34.7,98.9 35.0,98.9 C35.3,98.9 35.6,98.9 35.8,98.7 C36.0,98.6 36.2,98.3 36.4,98.0 C36.5,97.9 36.6,97.7 36.7,97.6 C36.8,97.5 37.0,97.5 37.1,97.5 C37.3,97.5 37.5,97.5 37.6,97.7 C37.7,97.8 37.8,98.0 37.8,98.2 M40.8,97.8 L40.8,99.2 C40.8,99.5 40.7,99.7 40.6,99.9 C40.4,100.1 40.2,100.1 40.0,100.1 C39.8,100.1 39.6,100.1 39.4,99.9 C39.3,99.7 39.2,99.5 39.2,99.2 L39.2,94.7 C39.2,94.0 39.5,93.6 40.0,93.6 C40.2,93.6 40.4,93.7 40.5,93.9 C40.7,94.1 40.7,94.3 40.7,94.6 C40.9,94.3 41.1,94.1 41.3,93.9 C41.5,93.7 41.8,93.6 42.1,93.6 C42.5,93.6 42.8,93.7 43.1,93.9 C43.4,94.1 43.6,94.3 43.6,94.6 C43.6,94.8 43.5,94.9 43.4,95.0 C43.3,95.2 43.1,95.2 42.9,95.2 C42.9,95.2 42.7,95.2 42.5,95.1 C42.3,95.1 42.1,95.0 41.9,95.0 C41.7,95.0 41.5,95.1 41.4,95.2 C41.2,95.3 41.1,95.5 41.0,95.8 C40.9,96.0 40.9,96.3 40.8,96.6 C40.8,97.0 40.8,97.4 40.8,97.8 M50.4,96.9 C50.4,97.4 50.4,97.8 50.2,98.2 C50.1,98.6 49.9,99.0 49.6,99.2 C49.3,99.5 49.0,99.8 48.6,99.9 C48.2,100.1 47.7,100.1 47.3,100.1 C46.8,100.1 46.3,100.1 45.9,99.9 C45.6,99.8 45.2,99.5 44.9,99.2 C44.7,99.0 44.4,98.6 44.3,98.2 C44.2,97.8 44.1,97.4 44.1,96.9 C44.1,96.4 44.2,96.0 44.3,95.6 C44.5,95.2 44.7,94.8 44.9,94.5 C45.2,94.2 45.6,94.0 45.9,93.9 C46.3,93.7 46.8,93.6 47.3,93.6 C47.7,93.6 48.2,93.7 48.6,93.9 C49.0,94.0 49.3,94.3 49.6,94.5 C49.9,94.8 50.1,95.2 50.2,95.6 C50.4,96.0 50.4,96.4 50.4,96.9 M48.8,96.9 C48.8,96.2 48.7,95.7 48.4,95.4 C48.1,95.0 47.7,94.8 47.3,94.8 C46.9,94.8 46.7,94.9 46.4,95.1 C46.2,95.2 46.0,95.5 45.9,95.8 C45.7,96.1 45.7,96.5 45.7,96.9 C45.7,97.3 45.7,97.7 45.9,98.0 C46.0,98.3 46.2,98.5 46.4,98.7 C46.7,98.9 46.9,99.0 47.3,99.0 C47.7,99.0 48.1,98.8 48.4,98.4 C48.7,98.0 48.8,97.5 48.8,96.9 M62.1,97.3 C62.1,97.6 62.1,97.9 61.9,98.2 C61.8,98.5 61.6,98.8 61.3,99.1 C61.0,99.4 60.6,99.7 60.2,99.9 C59.7,100.1 59.2,100.1 58.6,100.1 C58.2,100.1 57.8,100.1 57.4,100.0 C57.0,99.9 56.7,99.8 56.4,99.6 C56.1,99.4 55.8,99.2 55.5,98.9 C55.3,98.6 55.1,98.3 55.0,98.0 C54.8,97.7 54.7,97.3 54.6,96.9 C54.5,96.5 54.5,96.1 54.5,95.7 C54.5,95.0 54.6,94.4 54.8,93.9 C55.0,93.3 55.3,92.8 55.6,92.5 C56.0,92.1 56.5,91.8 57.0,91.6 C57.5,91.4 58.0,91.3 58.6,91.3 C59.3,91.3 59.9,91.4 60.4,91.7 C61.0,92.0 61.4,92.3 61.7,92.7 C62.0,93.1 62.1,93.5 62.1,93.9 C62.1,94.1 62.0,94.2 61.9,94.4 C61.8,94.5 61.6,94.6 61.4,94.6 C61.2,94.6 61.0,94.6 60.9,94.5 C60.8,94.4 60.7,94.2 60.5,93.9 C60.3,93.5 60.0,93.2 59.7,93.0 C59.4,92.8 59.0,92.6 58.6,92.6 C57.9,92.6 57.3,92.9 56.9,93.5 C56.5,94.0 56.2,94.8 56.2,95.8 C56.2,96.4 56.3,97.0 56.5,97.4 C56.7,97.9 57.0,98.2 57.3,98.4 C57.7,98.7 58.1,98.8 58.5,98.8 C59.0,98.8 59.5,98.6 59.8,98.4 C60.1,98.1 60.4,97.8 60.6,97.3 C60.7,97.1 60.7,96.9 60.9,96.7 C61.0,96.6 61.1,96.5 61.4,96.5 C61.6,96.5 61.8,96.6 61.9,96.7 C62.1,96.9 62.1,97.1 62.1,97.3 M69.6,96.9 C69.6,97.4 69.5,97.8 69.4,98.2 C69.2,98.6 69.0,99.0 68.7,99.2 C68.4,99.5 68.1,99.8 67.7,99.9 C67.3,100.1 66.9,100.1 66.4,100.1 C65.9,100.1 65.5,100.1 65.1,99.9 C64.7,99.8 64.4,99.5 64.1,99.2 C63.8,99.0 63.6,98.6 63.4,98.2 C63.3,97.8 63.2,97.4 63.2,96.9 C63.2,96.4 63.3,96.0 63.4,95.6 C63.6,95.2 63.8,94.8 64.1,94.5 C64.3,94.2 64.7,94.0 65.1,93.9 C65.5,93.7 65.9,93.6 66.4,93.6 C66.9,93.6 67.3,93.7 67.7,93.9 C68.1,94.0 68.4,94.3 68.7,94.5 C69.0,94.8 69.2,95.2 69.4,95.6 C69.5,96.0 69.6,96.4 69.6,96.9 M68.0,96.9 C68.0,96.2 67.8,95.7 67.5,95.4 C67.3,95.0 66.9,94.8 66.4,94.8 C66.1,94.8 65.8,94.9 65.6,95.1 C65.3,95.2 65.1,95.5 65.0,95.8 C64.9,96.1 64.8,96.5 64.8,96.9 C64.8,97.3 64.9,97.7 65.0,98.0 C65.1,98.3 65.3,98.5 65.6,98.7 C65.8,98.9 66.1,99.0 66.4,99.0 C66.9,99.0 67.3,98.8 67.5,98.4 C67.8,98.0 68.0,97.5 68.0,96.9 M72.3,94.5 L72.3,94.7 C72.6,94.3 72.9,94.1 73.2,93.9 C73.5,93.7 73.9,93.6 74.4,93.6 C74.8,93.6 75.2,93.7 75.5,93.9 C75.8,94.1 76.1,94.4 76.2,94.7 C76.3,94.9 76.4,95.1 76.4,95.3 C76.5,95.6 76.5,95.8 76.5,96.2 L76.5,99.2 C76.5,99.5 76.4,99.7 76.3,99.9 C76.1,100.1 75.9,100.1 75.7,100.1 C75.5,100.1 75.3,100.1 75.1,99.9 C75.0,99.7 74.9,99.5 74.9,99.2 L74.9,96.5 C74.9,96.0 74.8,95.6 74.7,95.3 C74.5,95.0 74.2,94.9 73.8,94.9 C73.5,94.9 73.3,95.0 73.0,95.1 C72.8,95.3 72.6,95.5 72.5,95.8 C72.4,96.1 72.4,96.5 72.4,97.2 L72.4,99.2 C72.4,99.5 72.3,99.7 72.2,99.9 C72.0,100.1 71.8,100.1 71.6,100.1 C71.4,100.1 71.2,100.1 71.0,99.9 C70.9,99.7 70.8,99.5 70.8,99.2 L70.8,94.6 C70.8,94.2 70.9,94.0 71.0,93.9 C71.1,93.7 71.3,93.6 71.5,93.6 C71.7,93.6 71.8,93.7 71.9,93.7 C72.0,93.8 72.1,93.9 72.2,94.0 C72.3,94.2 72.3,94.3 72.3,94.5 M78.0,93.8 L78.3,93.8 L78.3,93.3 C78.3,92.8 78.4,92.4 78.5,92.1 C78.7,91.8 78.9,91.6 79.2,91.5 C79.5,91.3 79.9,91.3 80.4,91.3 C81.4,91.3 81.8,91.5 81.8,91.9 C81.8,92.1 81.8,92.2 81.7,92.3 C81.6,92.4 81.5,92.5 81.3,92.5 C81.3,92.5 81.2,92.5 81.0,92.5 C80.9,92.4 80.7,92.4 80.6,92.4 C80.3,92.4 80.1,92.5 80.1,92.7 C80.0,92.8 79.9,93.1 79.9,93.4 L79.9,93.8 L80.3,93.8 C80.9,93.8 81.2,94.0 81.2,94.3 C81.2,94.6 81.2,94.8 81.0,94.8 C80.8,94.9 80.6,94.9 80.3,94.9 L79.9,94.9 L79.9,99.2 C79.9,99.5 79.9,99.7 79.7,99.9 C79.6,100.1 79.4,100.1 79.1,100.1 C78.9,100.1 78.7,100.1 78.6,99.9 C78.4,99.7 78.3,99.5 78.3,99.2 L78.3,94.9 L77.9,94.9 C77.7,94.9 77.5,94.9 77.3,94.8 C77.2,94.7 77.2,94.5 77.2,94.4 C77.2,94.0 77.4,93.8 78.0,93.8 M83.7,94.6 L83.7,99.2 C83.7,99.5 83.6,99.7 83.5,99.9 C83.3,100.1 83.1,100.1 82.9,100.1 C82.6,100.1 82.5,100.1 82.3,99.9 C82.2,99.7 82.1,99.5 82.1,99.2 L82.1,94.6 C82.1,94.3 82.2,94.0 82.3,93.9 C82.5,93.7 82.6,93.6 82.9,93.6 C83.1,93.6 83.3,93.7 83.5,93.9 C83.6,94.0 83.7,94.3 83.7,94.6 M82.9,92.9 C82.7,92.9 82.5,92.8 82.3,92.7 C82.2,92.6 82.1,92.4 82.1,92.1 C82.1,91.9 82.2,91.7 82.3,91.6 C82.5,91.4 82.7,91.3 82.9,91.3 C83.1,91.3 83.3,91.4 83.4,91.5 C83.6,91.7 83.7,91.9 83.7,92.1 C83.7,92.4 83.6,92.6 83.4,92.7 C83.3,92.8 83.1,92.9 82.9,92.9 M91.2,94.8 L91.2,99.5 C91.2,100.0 91.2,100.4 91.0,100.8 C90.9,101.2 90.8,101.5 90.5,101.8 C90.3,102.0 89.9,102.2 89.5,102.3 C89.1,102.5 88.6,102.5 88.0,102.5 C87.5,102.5 87.0,102.4 86.5,102.3 C86.1,102.1 85.8,101.9 85.5,101.7 C85.3,101.4 85.2,101.2 85.2,100.9 C85.2,100.7 85.2,100.6 85.4,100.5 C85.5,100.3 85.7,100.3 85.9,100.3 C86.1,100.3 86.3,100.4 86.5,100.6 C86.6,100.7 86.7,100.8 86.7,100.9 C86.8,101.0 86.9,101.1 87.0,101.2 C87.2,101.3 87.3,101.3 87.5,101.4 C87.6,101.4 87.8,101.4 88.0,101.4 C88.4,101.4 88.7,101.3 89.0,101.2 C89.2,101.1 89.3,101.0 89.4,100.8 C89.5,100.5 89.6,100.3 89.6,100.1 C89.6,99.8 89.6,99.5 89.6,98.9 C89.4,99.3 89.1,99.6 88.8,99.7 C88.5,99.9 88.1,100.0 87.6,100.0 C87.1,100.0 86.6,99.9 86.2,99.6 C85.8,99.3 85.5,98.9 85.3,98.4 C85.1,97.9 85.0,97.4 85.0,96.7 C85.0,96.3 85.0,95.8 85.2,95.4 C85.3,95.0 85.5,94.7 85.7,94.5 C86.0,94.2 86.3,94.0 86.6,93.9 C86.9,93.7 87.2,93.7 87.6,93.7 C88.1,93.7 88.5,93.7 88.8,93.9 C89.1,94.1 89.4,94.4 89.7,94.7 L89.7,94.5 C89.7,94.2 89.8,94.0 89.9,93.9 C90.1,93.7 90.2,93.6 90.5,93.6 C90.8,93.6 91.0,93.7 91.1,93.9 C91.2,94.1 91.2,94.4 91.2,94.8 M86.6,96.8 C86.6,97.5 86.7,98.0 87.0,98.3 C87.3,98.6 87.7,98.8 88.1,98.8 C88.4,98.8 88.6,98.7 88.9,98.6 C89.1,98.5 89.3,98.2 89.4,98.0 C89.6,97.7 89.7,97.3 89.7,96.9 C89.7,96.3 89.5,95.7 89.2,95.4 C88.9,95.0 88.6,94.8 88.1,94.8 C87.6,94.8 87.3,95.0 87.0,95.4 C86.7,95.7 86.6,96.2 86.6,96.8 M97.7,92.3 L97.7,98.6 L101.2,98.6 C101.5,98.6 101.7,98.6 101.8,98.8 C102.0,98.9 102.1,99.1 102.1,99.3 C102.1,99.5 102.0,99.7 101.8,99.8 C101.7,99.9 101.5,100.0 101.2,100.0 L97.0,100.0 C96.6,100.0 96.3,99.9 96.2,99.7 C96.0,99.6 95.9,99.3 95.9,98.9 L95.9,92.3 C95.9,92.0 96.0,91.7 96.1,91.5 C96.3,91.4 96.5,91.3 96.8,91.3 C97.0,91.3 97.2,91.4 97.4,91.5 C97.6,91.7 97.7,92.0 97.7,92.3 M104.7,94.6 L104.7,99.2 C104.7,99.5 104.6,99.7 104.5,99.9 C104.3,100.1 104.1,100.1 103.9,100.1 C103.6,100.1 103.5,100.1 103.3,99.9 C103.2,99.7 103.1,99.5 103.1,99.2 L103.1,94.6 C103.1,94.3 103.2,94.0 103.3,93.9 C103.5,93.7 103.6,93.6 103.9,93.6 C104.1,93.6 104.3,93.7 104.5,93.9 C104.6,94.0 104.7,94.3 104.7,94.6 M103.9,92.9 C103.7,92.9 103.5,92.8 103.3,92.7 C103.2,92.6 103.1,92.4 103.1,92.1 C103.1,91.9 103.2,91.7 103.3,91.6 C103.5,91.4 103.7,91.3 103.9,91.3 C104.1,91.3 104.3,91.4 104.4,91.5 C104.6,91.7 104.7,91.9 104.7,92.1 C104.7,92.4 104.6,92.6 104.4,92.7 C104.3,92.8 104.1,92.9 103.9,92.9 M107.8,92.2 L107.8,94.6 C108.1,94.3 108.4,94.1 108.7,93.9 C109.0,93.7 109.4,93.7 109.9,93.7 C110.4,93.7 110.9,93.8 111.3,94.0 C111.7,94.3 112.0,94.6 112.2,95.1 C112.4,95.6 112.6,96.2 112.6,96.8 C112.6,97.3 112.5,97.8 112.4,98.2 C112.2,98.6 112.1,98.9 111.8,99.2 C111.6,99.5 111.3,99.7 111.0,99.9 C110.6,100.1 110.3,100.1 109.9,100.1 C109.6,100.1 109.4,100.1 109.2,100.1 C109.0,100.0 108.8,99.9 108.6,99.8 C108.5,99.7 108.3,99.6 108.2,99.5 C108.1,99.4 108.0,99.3 107.8,99.1 L107.8,99.2 C107.8,99.5 107.7,99.8 107.6,99.9 C107.5,100.1 107.3,100.1 107.0,100.1 C106.8,100.1 106.6,100.1 106.5,99.9 C106.4,99.8 106.3,99.5 106.3,99.2 L106.3,92.2 C106.3,91.9 106.4,91.7 106.5,91.5 C106.6,91.3 106.8,91.3 107.0,91.3 C107.3,91.3 107.5,91.3 107.6,91.5 C107.7,91.7 107.8,91.9 107.8,92.2 M107.9,96.9 C107.9,97.6 108.0,98.1 108.3,98.4 C108.6,98.7 109.0,98.9 109.5,98.9 C109.9,98.9 110.2,98.7 110.5,98.4 C110.8,98.0 110.9,97.5 110.9,96.9 C110.9,96.5 110.9,96.1 110.8,95.8 C110.6,95.5 110.5,95.3 110.2,95.1 C110.0,94.9 109.8,94.8 109.5,94.8 C109.2,94.8 108.9,94.9 108.7,95.1 C108.4,95.3 108.2,95.5 108.1,95.8 C108.0,96.1 107.9,96.5 107.9,96.9 M115.4,97.8 L115.4,99.2 C115.4,99.5 115.3,99.7 115.2,99.9 C115.0,100.1 114.8,100.1 114.6,100.1 C114.4,100.1 114.2,100.1 114.0,99.9 C113.9,99.7 113.8,99.5 113.8,99.2 L113.8,94.7 C113.8,94.0 114.1,93.6 114.6,93.6 C114.9,93.6 115.1,93.7 115.2,93.9 C115.3,94.1 115.4,94.3 115.4,94.6 C115.6,94.3 115.8,94.1 116.0,93.9 C116.2,93.7 116.4,93.6 116.8,93.6 C117.1,93.6 117.4,93.7 117.7,93.9 C118.1,94.1 118.2,94.3 118.2,94.6 C118.2,94.8 118.2,94.9 118.0,95.0 C117.9,95.2 117.7,95.2 117.6,95.2 C117.5,95.2 117.4,95.2 117.2,95.1 C116.9,95.1 116.7,95.0 116.6,95.0 C116.3,95.0 116.1,95.1 116.0,95.2 C115.8,95.3 115.7,95.5 115.6,95.8 C115.6,96.0 115.5,96.3 115.5,96.6 C115.4,97.0 115.4,97.4 115.4,97.8 M123.1,99.2 C122.7,99.5 122.4,99.8 122.0,99.9 C121.7,100.1 121.2,100.1 120.8,100.1 C120.4,100.1 120.0,100.1 119.7,99.9 C119.4,99.7 119.2,99.5 119.0,99.2 C118.8,99.0 118.7,98.7 118.7,98.3 C118.7,97.9 118.9,97.5 119.2,97.2 C119.4,96.9 119.8,96.7 120.3,96.6 C120.4,96.6 120.7,96.5 121.1,96.4 C121.5,96.4 121.8,96.3 122.1,96.2 C122.4,96.1 122.7,96.1 123.0,96.0 C123.0,95.5 122.9,95.2 122.8,95.0 C122.6,94.8 122.3,94.7 121.8,94.7 C121.4,94.7 121.1,94.8 120.9,94.9 C120.7,95.0 120.5,95.2 120.4,95.4 C120.2,95.7 120.1,95.8 120.1,95.9 C120.0,95.9 119.9,96.0 119.7,96.0 C119.5,96.0 119.4,95.9 119.2,95.8 C119.1,95.7 119.0,95.5 119.0,95.4 C119.0,95.1 119.1,94.8 119.3,94.5 C119.5,94.3 119.8,94.1 120.3,93.9 C120.7,93.7 121.2,93.6 121.8,93.6 C122.5,93.6 123.1,93.7 123.5,93.9 C123.9,94.0 124.2,94.3 124.4,94.7 C124.5,95.0 124.6,95.5 124.6,96.1 C124.6,96.5 124.6,96.8 124.6,97.1 C124.6,97.3 124.6,97.6 124.6,97.9 C124.6,98.2 124.6,98.5 124.7,98.9 C124.8,99.2 124.9,99.4 124.9,99.5 C124.9,99.7 124.8,99.8 124.7,99.9 C124.5,100.1 124.3,100.1 124.1,100.1 C124.0,100.1 123.8,100.1 123.6,99.9 C123.5,99.8 123.3,99.5 123.1,99.2 M123.0,96.9 C122.8,97.0 122.5,97.1 122.0,97.2 C121.6,97.3 121.3,97.4 121.1,97.4 C120.9,97.5 120.7,97.5 120.6,97.7 C120.4,97.8 120.4,98.0 120.4,98.2 C120.4,98.5 120.4,98.7 120.6,98.8 C120.8,99.0 121.1,99.1 121.3,99.1 C121.7,99.1 122.0,99.0 122.2,98.9 C122.5,98.8 122.7,98.6 122.8,98.4 C123.0,98.1 123.0,97.7 123.0,97.2 M127.8,97.8 L127.8,99.2 C127.8,99.5 127.7,99.7 127.6,99.9 C127.4,100.1 127.2,100.1 127.0,100.1 C126.8,100.1 126.6,100.1 126.4,99.9 C126.3,99.7 126.2,99.5 126.2,99.2 L126.2,94.7 C126.2,94.0 126.5,93.6 127.0,93.6 C127.3,93.6 127.4,93.7 127.6,93.9 C127.7,94.1 127.7,94.3 127.8,94.6 C127.9,94.3 128.1,94.1 128.3,93.9 C128.5,93.7 128.8,93.6 129.2,93.6 C129.5,93.6 129.8,93.7 130.1,93.9 C130.4,94.1 130.6,94.3 130.6,94.6 C130.6,94.8 130.5,94.9 130.4,95.0 C130.3,95.2 130.1,95.2 130.0,95.2 C129.9,95.2 129.8,95.2 129.5,95.1 C129.3,95.1 129.1,95.0 128.9,95.0 C128.7,95.0 128.5,95.1 128.4,95.2 C128.2,95.3 128.1,95.5 128.0,95.8 C127.9,96.0 127.9,96.3 127.9,96.6 C127.8,97.0 127.8,97.4 127.8,97.8 M133.0,100.3 L133.1,100.0 L131.1,95.0 C131.0,94.7 131.0,94.5 131.0,94.4 C131.0,94.3 131.0,94.1 131.1,94.0 C131.1,93.9 131.2,93.8 131.3,93.7 C131.5,93.7 131.6,93.6 131.7,93.6 C132.0,93.6 132.1,93.7 132.3,93.9 C132.4,94.0 132.5,94.2 132.6,94.5 L133.9,98.4 L135.2,94.8 C135.3,94.5 135.4,94.2 135.5,94.1 C135.6,93.9 135.6,93.8 135.7,93.7 C135.8,93.7 136.0,93.6 136.1,93.6 C136.2,93.6 136.4,93.7 136.5,93.7 C136.6,93.8 136.7,93.9 136.7,94.0 C136.8,94.1 136.8,94.2 136.8,94.3 C136.8,94.4 136.8,94.5 136.7,94.7 C136.7,94.8 136.7,94.9 136.6,95.1 L134.5,100.5 C134.4,101.0 134.2,101.4 134.0,101.7 C133.8,101.9 133.6,102.2 133.3,102.3 C133.0,102.4 132.7,102.5 132.2,102.5 C131.7,102.5 131.4,102.5 131.1,102.4 C130.9,102.3 130.8,102.1 130.8,101.8 C130.8,101.6 130.8,101.5 130.9,101.4 C131.0,101.3 131.2,101.2 131.4,101.2 C131.5,101.2 131.6,101.2 131.7,101.3 C131.8,101.3 131.9,101.3 131.9,101.3 C132.1,101.3 132.3,101.3 132.4,101.2 C132.5,101.2 132.6,101.1 132.7,100.9 C132.7,100.8 132.8,100.6 133.0,100.3 "></path>
    </g>
</svg>
